<svg width="63" height="59" viewBox="0 0 63 59" fill="none" xmlns="http://www.w3.org/2000/svg">
<path d="M31.73 10.8791L37.1315 21.6447L38.2151 23.8049L40.6396 24.1514L52.7181 25.8781L43.9781 34.258L42.2245 35.9398L42.6382 38.3146L44.7012 50.147L33.8982 44.5598L31.73 43.4398L29.5618 44.5607L18.7588 50.1479L20.8218 38.3155L21.2355 35.9408L19.4819 34.2589L10.7419 25.8791L22.8195 24.1523L25.2439 23.8059L26.3276 21.6456L31.73 10.8791ZM31.73 0.525024L22.1505 19.6164L0.729996 22.6785L16.23 37.5392L12.5709 58.5241L31.73 48.6164L50.8891 58.525L47.23 37.5392L62.73 22.6785L41.3086 19.6164L31.73 0.525024Z" fill="#503392"/>
</svg>
