<svg width="60" height="55" viewBox="0 0 60 55" fill="none" xmlns="http://www.w3.org/2000/svg">
<path d="M55.5556 32.8353V10.778C51.6435 12.9503 48.1019 14.0365 44.9306 14.0365C43.0324 14.0365 41.3542 13.6545 39.8958 12.8906C37.581 11.7209 35.4514 10.8078 33.5069 10.1514C31.5625 9.4949 29.5023 9.16667 27.3264 9.16667C23.3218 9.16667 18.6574 10.6825 13.3333 13.7142V35.1628C19.0046 32.4653 24.0162 31.1165 28.3681 31.1165C29.6412 31.1165 30.8391 31.2061 31.9618 31.3851C33.0845 31.5641 34.2188 31.8745 35.3646 32.3161C36.5104 32.7577 37.4016 33.1277 38.0382 33.4261C38.6748 33.7245 39.6296 34.196 40.9028 34.8405L41.875 35.3418C42.8935 35.867 44.0625 36.1296 45.3819 36.1296C48.1597 36.1296 51.5509 35.0315 55.5556 32.8353ZM8.88889 4.58333C8.88889 5.41884 8.68634 6.18273 8.28125 6.875C7.87616 7.56727 7.33796 8.11632 6.66667 8.52214V53.8542C6.66667 54.1884 6.5625 54.4629 6.35417 54.6777C6.14583 54.8926 5.87963 55 5.55556 55H3.33333C3.00926 55 2.74306 54.8926 2.53472 54.6777C2.32639 54.4629 2.22222 54.1884 2.22222 53.8542V8.52214C1.55093 8.11632 1.01273 7.56727 0.607639 6.875C0.202546 6.18273 0 5.41884 0 4.58333C0 3.31814 0.434028 2.23796 1.30208 1.34277C2.17014 0.447591 3.21759 0 4.44444 0C5.6713 0 6.71875 0.447591 7.58681 1.34277C8.45486 2.23796 8.88889 3.31814 8.88889 4.58333ZM60 6.875V34.196C60 35.127 59.5949 35.8073 58.7847 36.237C58.5532 36.3563 58.3565 36.4638 58.1944 36.5592C53.1482 39.3283 48.8773 40.7129 45.3819 40.7129C43.3449 40.7129 41.5162 40.2951 39.8958 39.4596L38.9236 38.9583C37.4421 38.1706 36.2963 37.5977 35.4861 37.2396C34.6759 36.8815 33.6227 36.5354 32.3264 36.2012C31.0301 35.867 29.7106 35.6999 28.3681 35.6999C26.0069 35.6999 23.2813 36.225 20.191 37.2754C17.1007 38.3257 14.456 39.5432 12.2569 40.9277C11.9097 41.1426 11.5278 41.25 11.1111 41.25C10.7407 41.25 10.3704 41.1545 10 40.9635C9.25926 40.51 8.88889 39.8416 8.88889 38.9583V12.3893C8.88889 11.5538 9.24769 10.8974 9.96528 10.4199C10.7755 9.91862 11.684 9.41135 12.691 8.89811C13.6979 8.38487 15.0174 7.76421 16.6493 7.03613C18.2813 6.30805 20.0463 5.71723 21.9444 5.26367C23.8426 4.81011 25.6366 4.58333 27.3264 4.58333C29.919 4.58333 32.338 4.95334 34.5833 5.69336C36.8287 6.43338 39.2477 7.45985 41.8403 8.77279C42.7199 9.22635 43.75 9.45313 44.9306 9.45313C47.7546 9.45313 51.3426 8.11632 55.6944 5.44271C56.2037 5.15625 56.5625 4.95334 56.7708 4.83398C57.4884 4.45204 58.206 4.47591 58.9236 4.9056C59.6412 5.38303 60 6.0395 60 6.875Z" fill="#503392"/>
</svg>
