<svg width="60" height="53" viewBox="0 0 60 53" fill="none" xmlns="http://www.w3.org/2000/svg">
<path d="M30 53L28.9958 52.1124C6.15062 33.3469 0 26.7536 0 15.9761C0 7.10047 7.1548 0 15.8159 0C23.0962 0 27.2385 4.1842 30 7.35405C32.7615 4.1842 36.9038 0 44.1841 0C52.9707 0 60 7.22726 60 15.9761C60 26.7536 53.8494 33.3469 31.0042 52.1124L30 53ZM15.8159 3.29664C8.91212 3.29664 3.26359 9.00238 3.26359 15.9761C3.26359 25.2321 9.03765 31.3182 30 48.689C50.9623 31.3182 56.7364 25.2321 56.7364 15.9761C56.7364 9.00238 51.0879 3.29664 44.1841 3.29664C37.9079 3.29664 34.5188 7.10048 31.8828 10.1435L30 12.299L28.1171 10.1435C25.4812 7.10048 22.092 3.29664 15.8159 3.29664Z" fill="#503392"/>
</svg>
