<svg width="60" height="52" viewBox="0 0 60 52" fill="none" xmlns="http://www.w3.org/2000/svg">
<path d="M41.919 25C44.1281 25 45.919 23.2091 45.919 21C45.919 18.7909 44.1281 17 41.919 17C39.7099 17 37.919 18.7909 37.919 21C37.919 23.2091 39.7099 25 41.919 25Z" fill="#503392"/>
<path d="M17.919 25C20.1281 25 21.919 23.2091 21.919 21C21.919 18.7909 20.1281 17 17.919 17C15.7099 17 13.919 18.7909 13.919 21C13.919 23.2091 15.7099 25 17.919 25Z" fill="#503392"/>
<path d="M29.919 25C32.1281 25 33.919 23.2091 33.919 21C33.919 18.7909 32.1281 17 29.919 17C27.7099 17 25.919 18.7909 25.919 21C25.919 23.2091 27.7099 25 29.919 25Z" fill="#503392"/>
<path d="M30 4.33333C25.4464 4.33333 21.1886 5.11762 17.2266 6.6862C13.2645 8.25477 10.1172 10.3707 7.7846 13.0339C5.45201 15.697 4.28571 18.5747 4.28571 21.6667C4.28571 24.1944 5.0837 26.6037 6.67969 28.8945C8.27567 31.1853 10.5246 33.1658 13.4263 34.8359L16.3393 36.5286L15.4353 39.7786C14.8996 41.8325 14.1183 43.7734 13.0915 45.6016C16.4844 44.1797 19.5536 42.25 22.2991 39.8125L23.7388 38.526L25.6473 38.7292C27.1875 38.9097 28.6384 39 30 39C34.5536 39 38.8114 38.2157 42.7734 36.6471C46.7355 35.0786 49.8828 32.9627 52.2154 30.2995C54.548 27.6363 55.7143 24.7587 55.7143 21.6667C55.7143 18.5747 54.548 15.697 52.2154 13.0339C49.8828 10.3707 46.7355 8.25477 42.7734 6.6862C38.8114 5.11762 34.5536 4.33333 30 4.33333ZM60 21.6667C60 25.5938 58.6607 29.2218 55.9821 32.5508C53.3036 35.8798 49.6652 38.5091 45.067 40.4388C40.4688 42.3685 35.4464 43.3333 30 43.3333C28.4375 43.3333 26.8192 43.2431 25.1451 43.0625C20.7254 47.0122 15.5915 49.7431 9.7433 51.2552C8.64955 51.5712 7.37723 51.8194 5.92634 52H5.75893C5.42411 52 5.12277 51.8815 4.85491 51.6445C4.58705 51.4076 4.40848 51.0972 4.3192 50.7135V50.6797C4.25223 50.5894 4.24665 50.454 4.30246 50.2734C4.35826 50.0929 4.38058 49.98 4.36942 49.9349C4.35826 49.8898 4.40848 49.7826 4.52009 49.6133L4.72098 49.3086L4.95536 49.0208L5.22321 48.7161C5.37946 48.5356 5.72545 48.1463 6.26116 47.5482C6.79688 46.9501 7.18192 46.5213 7.41629 46.2617C7.65067 46.0022 7.99665 45.5564 8.45424 44.9245C8.91183 44.2925 9.27455 43.717 9.54241 43.1979C9.81027 42.6788 10.1116 42.013 10.4464 41.2005C10.7812 40.388 11.0714 39.5304 11.317 38.6276C7.8125 36.6189 5.05022 34.1363 3.03013 31.1797C1.01004 28.2231 0 25.0521 0 21.6667C0 17.7396 1.33929 14.1115 4.01786 10.7826C6.69643 7.45356 10.3348 4.82422 14.933 2.89453C19.5312 0.964844 24.5536 0 30 0C35.4464 0 40.4688 0.964844 45.067 2.89453C49.6652 4.82422 53.3036 7.45356 55.9821 10.7826C58.6607 14.1115 60 17.7396 60 21.6667Z" fill="#503392"/>
</svg>
